<svg width="165" height="78" viewBox="0 0 165 78" fill="none" xmlns="http://www.w3.org/2000/svg">
<path d="M1.44141 37V12.3906H4.5V33.9766H14.6602V37H1.44141ZM16.6289 31.7969V23.1133C16.6289 22.0117 17.1211 20.9336 18.1055 19.8789C19.3242 18.6133 20.8477 17.9805 22.6758 17.9805V20.8281C21.293 20.8281 20.332 21.4023 19.793 22.5508C19.6289 22.9023 19.5469 23.2539 19.5469 23.6055V31.3398C19.5469 32.207 19.9453 32.9453 20.7422 33.5547C21.3047 33.9766 21.9492 34.1875 22.6758 34.1875V37.0352C20.4492 37.0352 18.7266 36.1328 17.5078 34.3281C16.9219 33.4375 16.6289 32.5938 16.6289 31.7969ZM24.1875 37.0352V34.1875C25.4297 34.1875 26.3203 33.625 26.8594 32.5C27.0469 32.125 27.1406 31.7617 27.1406 31.4102V23.6055C27.1406 22.6445 26.7305 21.8828 25.9102 21.3203C25.3945 20.9922 24.8086 20.8281 24.1523 20.8281V17.9805C26.3086 17.9805 27.9727 18.8594 29.1445 20.6172C29.7305 21.4844 30.0234 22.3164 30.0234 23.1133V31.7969C30.0234 32.9453 29.5312 34.0586 28.5469 35.1367C27.3984 36.3789 25.9453 37.0117 24.1875 37.0352ZM32.168 22.4102V19.5273H34.4883V17.4883C34.4883 16.1758 34.9219 14.9805 35.7891 13.9023C36.75 12.7773 37.9922 12.2031 39.5156 12.1797H40.8164L40.1484 15.0273H39.4805C38.1445 15.0977 37.4648 15.918 37.4414 17.4883V19.5625L39.832 19.5273V22.4102H37.4414V37H34.4883V22.4102H32.168ZM41.8008 21.0391V18.1914H44.1211V12.1094H47.1094V18.1914H49.3594V21.0742H47.1094V31.1641C47.1094 32.8281 47.7891 33.7539 49.1484 33.9414C49.4062 33.9883 49.6641 34.0117 49.9219 34.0117H50.4141L51.082 37H49.8164C46.9336 36.9766 45.1641 35.8984 44.5078 33.7656C44.2734 32.9688 44.1562 31.9844 44.1562 30.8125L44.1211 21.0391H41.8008ZM52.6641 37V12.3906H55.7227V23.1133H58.8867V26.1016H55.7227V37H52.6641ZM60.6445 26.1016V23.1133H63.7734V12.3906H66.8672V37H63.7734V26.1016H60.6445ZM69.6094 31.7969V23.1133C69.6094 22.0117 70.1016 20.9336 71.0859 19.8789C72.3047 18.6133 73.8281 17.9805 75.6562 17.9805V20.8281C74.2734 20.8281 73.3125 21.4023 72.7734 22.5508C72.6094 22.9023 72.5273 23.2539 72.5273 23.6055V31.3398C72.5273 32.207 72.9258 32.9453 73.7227 33.5547C74.2852 33.9766 74.9297 34.1875 75.6562 34.1875V37.0352C73.4297 37.0352 71.707 36.1328 70.4883 34.3281C69.9023 33.4375 69.6094 32.5938 69.6094 31.7969ZM77.168 37.0352V34.1875C78.4102 34.1875 79.3008 33.625 79.8398 32.5C80.0273 32.125 80.1211 31.7617 80.1211 31.4102V23.6055C80.1211 22.6445 79.7109 21.8828 78.8906 21.3203C78.375 20.9922 77.7891 20.8281 77.1328 20.8281V17.9805C79.2891 17.9805 80.9531 18.8594 82.125 20.6172C82.7109 21.4844 83.0039 22.3164 83.0039 23.1133V31.7969C83.0039 32.9453 82.5117 34.0586 81.5273 35.1367C80.3789 36.3789 78.9258 37.0117 77.168 37.0352ZM85.6758 31.9375V18.0156H88.6641V31.5859C88.6641 32.4297 89.0859 33.1328 89.9297 33.6953C90.4922 34.0469 91.1133 34.2227 91.793 34.2227V37.1758C89.543 37.1758 87.8086 36.2969 86.5898 34.5391C85.9805 33.6484 85.6758 32.7812 85.6758 31.9375ZM93.3398 37.1758V34.2227C94.6055 34.2227 95.5312 33.7188 96.1172 32.7109C96.3281 32.3359 96.4336 31.9609 96.4336 31.5859V18.0156H99.4219V31.9375C99.4219 33.0391 98.918 34.1289 97.9102 35.207C96.6914 36.4961 95.168 37.1523 93.3398 37.1758ZM101.461 32.0078L104.238 31.4805C104.238 32.5352 104.789 33.3672 105.891 33.9766C106.43 34.2344 106.945 34.375 107.438 34.3984V37.1758C105.164 37.1758 103.465 36.3555 102.34 34.7148C101.754 33.8477 101.461 32.9453 101.461 32.0078ZM101.637 23.3594C101.637 21.2266 102.609 19.6445 104.555 18.6133C105.492 18.1211 106.43 17.875 107.367 17.875V20.6172C106.289 20.6172 105.457 21.0625 104.871 21.9531C104.566 22.3984 104.414 22.8672 104.414 23.3594C104.414 24.1094 105 24.7188 106.172 25.1875C107.062 25.5625 108.785 26.0547 111.34 26.6641C112.934 26.9922 114.07 27.7773 114.75 29.0195C115.102 29.6758 115.277 30.4141 115.277 31.2344C115.277 33.4844 114.375 35.1484 112.57 36.2266C111.516 36.8594 110.309 37.1758 108.949 37.1758V34.3984C110.027 34.3984 110.93 34.0234 111.656 33.2734C112.172 32.7344 112.43 32.1016 112.43 31.375C112.43 30.4375 111.504 29.6875 109.652 29.125C109.184 28.9844 108.434 28.7852 107.402 28.5273C106.301 28.2695 105.504 28.0586 105.012 27.8945C103.23 27.1914 102.152 26.125 101.777 24.6953C101.684 24.2734 101.637 23.8281 101.637 23.3594ZM108.914 20.6523V17.875C110.93 17.875 112.559 18.625 113.801 20.125C114.574 21.0859 114.961 22.0938 114.961 23.1484L112.184 23.6055C112.184 22.3164 111.48 21.4141 110.074 20.8984C109.652 20.7344 109.266 20.6523 108.914 20.6523ZM117.352 31.7969V23.0781C117.375 22 117.891 20.9336 118.898 19.8789C120.117 18.6367 121.594 18.0039 123.328 17.9805V20.7578C122.203 20.7578 121.324 21.25 120.691 22.2344C120.434 22.6562 120.305 23.043 120.305 23.3945V25.7852H128.18V23.3945C128.18 22.3398 127.641 21.5664 126.562 21.0742C126.07 20.8398 125.566 20.7227 125.051 20.7227V17.9805C126.668 17.9805 128.109 18.5547 129.375 19.7031C130.43 20.7109 130.969 21.8242 130.992 23.043V28.6328H120.305V31.7969C120.305 32.4531 120.68 33.0625 121.43 33.625C122.039 34.0469 122.684 34.2578 123.363 34.2578V37C121.23 37 119.555 36.1328 118.336 34.3984C117.68 33.4844 117.352 32.6172 117.352 31.7969ZM125.051 37V34.2227C126.457 34.2227 127.512 33.6133 128.215 32.3945C128.355 32.1367 128.461 31.8906 128.531 31.6562L131.027 32.5703C130.605 34.1875 129.645 35.4062 128.145 36.2266C127.184 36.7422 126.152 37 125.051 37Z" fill="white"/>
<path d="M1.068 65V56.48H4.668C5.036 56.48 5.372 56.556 5.676 56.708C5.98 56.86 6.244 57.068 6.468 57.332C6.7 57.588 6.876 57.876 6.996 58.196C7.124 58.508 7.188 58.828 7.188 59.156C7.188 59.564 7.108 59.948 6.948 60.308C6.796 60.668 6.576 60.972 6.288 61.22C6.008 61.468 5.676 61.632 5.292 61.712L7.38 65H6.432L4.428 61.856H1.908V65H1.068ZM1.908 61.112H4.692C5.028 61.112 5.32 61.02 5.568 60.836C5.816 60.652 6.008 60.412 6.144 60.116C6.28 59.812 6.348 59.492 6.348 59.156C6.348 58.812 6.268 58.496 6.108 58.208C5.956 57.912 5.748 57.676 5.484 57.5C5.228 57.316 4.94 57.224 4.62 57.224H1.908V61.112ZM16.0718 64.256V65H10.3478V56.48H15.9638V57.224H11.1878V60.296H15.3518V61.004H11.1878V64.256H16.0718ZM24.0335 58.076C23.9135 57.94 23.7735 57.82 23.6135 57.716C23.4535 57.604 23.2735 57.508 23.0735 57.428C22.8735 57.348 22.6575 57.284 22.4255 57.236C22.2015 57.188 21.9615 57.164 21.7055 57.164C20.9615 57.164 20.4135 57.308 20.0615 57.596C19.7175 57.876 19.5455 58.26 19.5455 58.748C19.5455 59.084 19.6255 59.348 19.7855 59.54C19.9535 59.732 20.2135 59.888 20.5655 60.008C20.9175 60.128 21.3655 60.252 21.9095 60.38C22.5175 60.508 23.0415 60.66 23.4815 60.836C23.9215 61.012 24.2615 61.252 24.5015 61.556C24.7415 61.852 24.8615 62.256 24.8615 62.768C24.8615 63.16 24.7855 63.5 24.6335 63.788C24.4815 64.076 24.2695 64.316 23.9975 64.508C23.7255 64.7 23.4015 64.844 23.0255 64.94C22.6495 65.028 22.2375 65.072 21.7895 65.072C21.3495 65.072 20.9255 65.028 20.5175 64.94C20.1175 64.844 19.7375 64.708 19.3775 64.532C19.0175 64.348 18.6815 64.116 18.3695 63.836L18.7895 63.152C18.9415 63.312 19.1215 63.464 19.3295 63.608C19.5455 63.744 19.7815 63.868 20.0375 63.98C20.3015 64.092 20.5815 64.18 20.8775 64.244C21.1815 64.3 21.4935 64.328 21.8135 64.328C22.4935 64.328 23.0215 64.204 23.3975 63.956C23.7815 63.708 23.9735 63.34 23.9735 62.852C23.9735 62.5 23.8775 62.22 23.6855 62.012C23.4935 61.796 23.2055 61.62 22.8215 61.484C22.4375 61.348 21.9655 61.216 21.4055 61.088C20.8135 60.952 20.3135 60.8 19.9055 60.632C19.4975 60.464 19.1895 60.244 18.9815 59.972C18.7815 59.692 18.6815 59.324 18.6815 58.868C18.6815 58.34 18.8095 57.896 19.0655 57.536C19.3295 57.168 19.6895 56.892 20.1455 56.708C20.6015 56.516 21.1255 56.42 21.7175 56.42C22.0935 56.42 22.4415 56.46 22.7615 56.54C23.0895 56.612 23.3895 56.72 23.6615 56.864C23.9415 57.008 24.2015 57.188 24.4415 57.404L24.0335 58.076ZM27.7825 65V56.48H28.6225V65H27.7825ZM32.1991 65V56.48H35.0911C35.9951 56.48 36.7471 56.672 37.3471 57.056C37.9551 57.432 38.4111 57.944 38.7151 58.592C39.0191 59.232 39.1711 59.944 39.1711 60.728C39.1711 61.592 39.0031 62.344 38.6671 62.984C38.3391 63.624 37.8671 64.12 37.2511 64.472C36.6431 64.824 35.9231 65 35.0911 65H32.1991ZM38.3311 60.728C38.3311 60.048 38.2031 59.444 37.9471 58.916C37.6991 58.388 37.3351 57.976 36.8551 57.68C36.3751 57.376 35.7871 57.224 35.0911 57.224H33.0391V64.256H35.0911C35.7951 64.256 36.3871 64.1 36.8671 63.788C37.3471 63.476 37.7111 63.056 37.9591 62.528C38.2071 61.992 38.3311 61.392 38.3311 60.728ZM47.9412 64.256V65H42.2172V56.48H47.8332V57.224H43.0572V60.296H47.2212V61.004H43.0572V64.256H47.9412ZM51.8097 58.028V65H50.9697V56.48H51.6657L57.2577 63.584V56.492H58.0977V65H57.3177L51.8097 58.028ZM67.7273 57.224H64.6913V65H63.8513V57.224H60.8153V56.48H67.7273V57.224ZM70.4435 65V56.48H71.2835V65H70.4435ZM77.5 56.48H78.208L81.748 65H80.86L79.756 62.336H75.928L74.836 65H73.936L77.5 56.48ZM79.564 61.676L77.848 57.464L76.108 61.676H79.564ZM84.4094 65V56.48H85.2494V64.256H90.1694V65H84.4094ZM96.4285 60.68C96.4285 60.16 96.5165 59.652 96.6925 59.156C96.8765 58.652 97.1405 58.196 97.4845 57.788C97.8285 57.372 98.2525 57.044 98.7565 56.804C99.2605 56.556 99.8325 56.432 100.473 56.432C101.233 56.432 101.881 56.608 102.417 56.96C102.961 57.304 103.361 57.748 103.617 58.292L102.957 58.7C102.773 58.324 102.541 58.028 102.261 57.812C101.981 57.588 101.681 57.428 101.361 57.332C101.049 57.236 100.737 57.188 100.425 57.188C99.9125 57.188 99.4605 57.292 99.0685 57.5C98.6765 57.7 98.3445 57.972 98.0725 58.316C97.8085 58.652 97.6085 59.032 97.4725 59.456C97.3365 59.872 97.2685 60.296 97.2685 60.728C97.2685 61.2 97.3485 61.652 97.5085 62.084C97.6685 62.516 97.8925 62.9 98.1805 63.236C98.4685 63.564 98.8045 63.828 99.1885 64.028C99.5805 64.22 100.005 64.316 100.461 64.316C100.781 64.316 101.109 64.26 101.445 64.148C101.781 64.036 102.093 63.864 102.381 63.632C102.677 63.4 102.913 63.1 103.089 62.732L103.785 63.092C103.609 63.516 103.337 63.876 102.969 64.172C102.601 64.468 102.189 64.692 101.733 64.844C101.285 64.996 100.845 65.072 100.413 65.072C99.8285 65.072 99.2925 64.948 98.8045 64.7C98.3165 64.444 97.8925 64.108 97.5325 63.692C97.1805 63.268 96.9085 62.796 96.7165 62.276C96.5245 61.748 96.4285 61.216 96.4285 60.68ZM109.997 65.06C109.397 65.06 108.853 64.94 108.365 64.7C107.877 64.46 107.457 64.136 107.105 63.728C106.753 63.312 106.481 62.848 106.289 62.336C106.097 61.816 106.001 61.284 106.001 60.74C106.001 60.172 106.101 59.632 106.301 59.12C106.501 58.6 106.781 58.14 107.141 57.74C107.509 57.332 107.937 57.012 108.425 56.78C108.913 56.54 109.441 56.42 110.009 56.42C110.609 56.42 111.153 56.544 111.641 56.792C112.129 57.04 112.545 57.372 112.889 57.788C113.241 58.204 113.513 58.668 113.705 59.18C113.897 59.692 113.993 60.216 113.993 60.752C113.993 61.32 113.893 61.864 113.693 62.384C113.493 62.896 113.213 63.356 112.853 63.764C112.493 64.164 112.069 64.48 111.581 64.712C111.093 64.944 110.565 65.06 109.997 65.06ZM106.841 60.74C106.841 61.204 106.917 61.652 107.069 62.084C107.221 62.508 107.437 62.888 107.717 63.224C107.997 63.552 108.329 63.816 108.713 64.016C109.105 64.208 109.533 64.304 109.997 64.304C110.485 64.304 110.921 64.204 111.305 64.004C111.697 63.796 112.029 63.524 112.301 63.188C112.581 62.844 112.793 62.46 112.937 62.036C113.081 61.612 113.153 61.18 113.153 60.74C113.153 60.276 113.077 59.832 112.925 59.408C112.773 58.984 112.553 58.604 112.265 58.268C111.985 57.932 111.653 57.668 111.269 57.476C110.885 57.284 110.461 57.188 109.997 57.188C109.517 57.188 109.081 57.288 108.689 57.488C108.305 57.688 107.973 57.96 107.693 58.304C107.421 58.64 107.209 59.02 107.057 59.444C106.913 59.868 106.841 60.3 106.841 60.74ZM124.565 65V58.064L121.481 63.452H120.953L117.857 58.064V65H117.017V56.48H117.881L121.205 62.312L124.553 56.48H125.405V65H124.565ZM128.98 65V56.48H132.508C132.876 56.48 133.212 56.556 133.516 56.708C133.828 56.86 134.096 57.068 134.32 57.332C134.544 57.588 134.72 57.876 134.848 58.196C134.976 58.508 135.04 58.828 135.04 59.156C135.04 59.62 134.936 60.06 134.728 60.476C134.528 60.884 134.244 61.216 133.876 61.472C133.508 61.728 133.076 61.856 132.58 61.856H129.82V65H128.98ZM129.82 61.112H132.544C132.88 61.112 133.172 61.02 133.42 60.836C133.668 60.652 133.86 60.412 133.996 60.116C134.132 59.82 134.2 59.5 134.2 59.156C134.2 58.804 134.12 58.48 133.96 58.184C133.8 57.888 133.588 57.656 133.324 57.488C133.068 57.312 132.784 57.224 132.472 57.224H129.82V61.112ZM137.885 65V56.48H138.725V64.256H143.645V65H137.885ZM152.045 64.256V65H146.321V56.48H151.937V57.224H147.161V60.296H151.325V61.004H147.161V64.256H152.045ZM155.026 56.48L157.81 60.188L160.582 56.48H161.53L158.266 60.8L161.434 65H160.486L157.81 61.412L155.122 65H154.162L157.33 60.8L154.066 56.48H155.026Z" fill="white"/>
</svg>
